<svg width="1925.0375px" height="478.4px" xmlns="http://www.w3.org/2000/svg" viewBox="-712.51875 -164.2 1925.0375 478.4" style="background: rgba(0, 0, 0, 0);" preserveAspectRatio="xMidYMid"><defs><filter id="editing-liquid" width="150%" height="160%" x="-25%" y="-25%"><feFlood flood-color="#a0d5ff" result="flood-1"></feFlood><feFlood flood-color="rgba(100%,100%,100%,0.34)" result="flood-2"></feFlood><feFlood flood-color="#0067ff" result="flood-3"></feFlood><feTurbulence baseFrequency="0.01" type="fractalNoise" numOctaves="1" seed="1" result="bs-1"></feTurbulence><feGaussianBlur stdDeviation="10" in="SourceAlpha" result="bs-2"></feGaussianBlur><feDisplacementMap scale="420" in="bs-2" in2="bs-1" result="bs-3"></feDisplacementMap><feComposite operator="in" in="flood-1" in2="bs-3" result="bs-4"></feComposite><feTurbulence baseFrequency="0.02" type="fractalNoise" numOctaves="2" seed="2" result="ms-1"></feTurbulence><feGaussianBlur in="SourceAlpha" stdDeviation="0.1" result="ms-2"></feGaussianBlur><feDisplacementMap in="ms-2" in2="ms-1" scale="35" result="ms-3"></feDisplacementMap><feComposite in="flood-3" in2="ms-3" operator="in" result="ms-4"></feComposite><feTurbulence baseFrequency="0.05" type="fractalNoise" numOctaves="1" seed="3" result="ts-1"></feTurbulence><feGaussianBlur stdDeviation="3.5" in="SourceAlpha" result="ts-2"></feGaussianBlur><feDisplacementMap scale="220" in="ts-2" in2="ts-1" result="ts-3"></feDisplacementMap><feComposite operator="in" in="flood-2" in2="ts-3" result="ts-4"></feComposite><feMerge result="le-1"><feMergeNode in="bs-4"></feMergeNode><feMergeNode in="ms-4"></feMergeNode><feMergeNode in="ts-4"></feMergeNode></feMerge><feColorMatrix type="matrix" in="le-1" result="le-2" values="0 0 0 0 0, 0 0 0 0 0, 0 0 0 0 0, 0 0 0 1 0"></feColorMatrix><feGaussianBlur stdDeviation="2" in="le-2" result="le-3"></feGaussianBlur><feSpecularLighting surfaceScale="5" specularConstant=".75" specularExponent="30" lighting-color="#white" in="le-3" result="le-4"><fePointLight x="-50" y="-100" z="400"></fePointLight></feSpecularLighting><feComposite operator="in" in="le-4" in2="le-2" result="le-5"></feComposite><feComposite operator="arithmetic" k1="0" k2="1" k3="1" k4="0" in="le-1" in2="le-5" result="le-6"></feComposite></filter></defs><g filter="url(#editing-liquid)"><g transform="translate(-455.8999938964844, 177.40001678466797)"><path d="M59.80 2.20L59.80 2.20Q46.20 2.20 33-0.50L33-0.50L33-0.50Q19.80-3.20 15-6L15-6L15-36.80L23.20-36.80L29-17.20L29-17.20Q34.40-11.60 43.20-9.30L43.20-9.30L43.20-9.30Q52-7 62-7L62-7L62-7Q74.80-7 84.10-13.70L84.10-13.70L84.10-13.70Q93.40-20.40 93.40-33.80L93.40-33.80L93.40-33.80Q93.40-41.80 88.50-48.10L88.50-48.10L88.50-48.10Q83.60-54.40 76.40-59.20L76.40-59.20L76.40-59.20Q69.20-64 57-70.60L57-70.60L57-70.60Q44-77.40 35.60-83.10L35.60-83.10L35.60-83.10Q27.20-88.80 21.60-96.80L21.60-96.80L21.60-96.80Q16-104.80 16-115.20L16-115.20L16-115.20Q16-128 23.30-136.50L23.30-136.50L23.30-136.50Q30.60-145 41.40-149L41.40-149L41.40-149Q52.20-153 63.20-153L63.20-153L63.20-153Q76.40-153 86.20-150.70L86.20-150.70L86.20-150.70Q96-148.40 101.20-145.40L101.20-145.40L101.20-118.60L93.20-118.60L86.20-137.60L86.20-137.60Q82.60-140.80 76.10-142.40L76.10-142.40L76.10-142.40Q69.60-144 62-144L62-144L62-144Q55.40-144 48.60-141.40L48.60-141.40L48.60-141.40Q41.80-138.80 37.10-133L37.10-133L37.10-133Q32.40-127.20 32.40-118.20L32.40-118.20L32.40-118.20Q32.40-107.80 41.10-100.30L41.10-100.30L41.10-100.30Q49.80-92.80 66.40-84.40L66.40-84.40L66.40-84.40Q80.80-76.80 89.40-71.20L89.40-71.20L89.40-71.20Q98-65.60 104.10-57.50L104.10-57.50L104.10-57.50Q110.20-49.40 110.20-38.80L110.20-38.80L110.20-38.80Q110.20-18.20 96-8L96-8L96-8Q81.80 2.20 59.80 2.20L59.80 2.20ZM163.20-135.40L163.20-109.20L197.20-109.20L197.20-97.80L163.20-97.80L163.20-45.60L163.20-45.60Q163.20-30 164-23L164-23L164-23Q164.80-16 167.20-13.20L167.20-13.20L167.20-13.20Q169.60-10.40 175.20-10.40L175.20-10.40L175.20-10.40Q180.40-10.40 186.70-12.10L186.70-12.10L186.70-12.10Q193-13.80 195.80-15.60L195.80-15.60L198.60-7.60L198.60-7.60Q194.60-3.20 185.30-0.40L185.30-0.40L185.30-0.40Q176 2.40 168.40 2.40L168.40 2.40L168.40 2.40Q157.20 2.40 151.60-4.30L151.60-4.30L151.60-4.30Q146-11 146-25.60L146-25.60L146-97.80L131-97.80L131-104.60L135.40-105.60L135.40-105.60Q141.80-107 144.20-108.10L144.20-108.10L144.20-108.10Q146.60-109.20 148.40-112.80L148.40-112.80L148.40-112.80Q149.60-115.80 151.70-123.90L151.70-123.90L151.70-123.90Q153.80-132 154.20-135.40L154.20-135.40L163.20-135.40ZM267.20-112.60L267.20-112.60Q283.20-112.60 294.10-105.10L294.10-105.10L294.10-105.10Q305-97.60 310.20-84.80L310.20-84.80L310.20-84.80Q315.40-72 315.40-56.20L315.40-56.20L315.40-56.20Q315.20-39.20 308.40-25.80L308.40-25.80L308.40-25.80Q301.60-12.40 290-5L290-5L290-5Q278.40 2.40 264.20 2.40L264.20 2.40L264.20 2.40Q247.20 2.40 236.10-5.50L236.10-5.50L236.10-5.50Q225.00-13.40 219.80-26.60L219.80-26.60L219.80-26.60Q214.60-39.80 214.60-55.80L214.60-55.80L214.60-55.80Q214.60-72.80 221.90-85.80L221.90-85.80L221.90-85.80Q229.20-98.80 241.20-105.70L241.20-105.70L241.20-105.70Q253.20-112.60 267.20-112.60L267.20-112.60ZM264.40-102.80L264.40-102.80Q248.80-102.80 241.00-91L241.00-91L241.00-91Q233.20-79.20 233.20-57.80L233.20-57.80L233.20-57.80Q233.20-36.40 241.50-22.10L241.50-22.10L241.50-22.10Q249.80-7.80 265.80-7.80L265.80-7.80L265.80-7.80Q281.80-7.80 289.20-19.90L289.20-19.90L289.20-19.90Q296.60-32 296.60-55.20L296.60-55.20L296.60-55.20Q296.60-76.60 288.60-89.70L288.60-89.70L288.60-89.70Q280.60-102.80 264.40-102.80L264.40-102.80ZM335.80-7.80L352-9.80L352-91.20L337.80-98L337.80-103.80L363-111L367.40-109L367.40-94.40L367.40-94.40Q371.40-100.20 382.10-105.70L382.10-105.70L382.10-105.70Q392.80-111.20 401.60-111.20L401.60-111.20L401.60-111.20Q408.80-111.20 411.20-110.60L411.20-110.60L411.20-92L411.20-92Q406.80-93.60 403.50-94.30L403.50-94.30L403.50-94.30Q400.20-95 394.60-95L394.60-95L394.60-95Q380.80-95 369.60-87.60L369.60-87.60L369.60-10L398-7.80L398 0L335.80 0L335.80-7.80ZM479-112.60L479-112.60Q496.80-113 507-101.40L507-101.40L507-101.40Q517.20-89.80 517.20-69.40L517.20-69.40L517.20-69.40Q517.20-62.40 516-54L516-54L442.60-54L442.60-54Q442.60-33.60 452.50-21.80L452.50-21.80L452.50-21.80Q462.40-10 480.80-10L480.80-10L480.80-10Q488.80-10 497.60-11.90L497.60-11.90L497.60-11.90Q506.40-13.80 510.80-16.40L510.80-16.40L514.20-8.60L514.20-8.60Q508.60-3.60 497.10-0.60L497.10-0.60L497.10-0.60Q485.60 2.40 474 2.40L474 2.40L474 2.40Q450.80 2.40 437.90-12.90L437.90-12.90L437.90-12.90Q425-28.20 425-54.20L425-54.20L425-54.20Q425-70.80 431.90-83.90L431.90-83.90L431.90-83.90Q438.80-97 451.10-104.60L451.10-104.60L451.10-104.60Q463.40-112.20 479-112.60L479-112.60ZM474.40-102.80L474.40-102.80Q461.80-102.80 453.10-93.30L453.10-93.30L453.10-93.30Q444.40-83.80 442.80-64.80L442.80-64.80L498.60-64.80L498.60-64.80Q498.80-66.80 498.80-70.80L498.80-70.80L498.80-70.80Q498.80-92.60 487.60-99.40L487.60-99.40L487.60-99.40Q482.40-102.80 474.40-102.80L474.40-102.80ZM534.80-8L552-10.60L561.60-140.20L542.40-141.80L542.40-151.60L586.40-151.60L622.60-43L627-28.60L631.40-43.20L665.80-151.60L706.40-151.60L706.40-141.80L687.80-140.20L699-10.60L716.60-8L716.60 0L665.20 0L665.20-8L682.40-10.60L674-104.60L673-138.40L668.60-121.40L627.40 1.40L621.20 1.40L582.80-107.80L582.80-107.80Q579.40-117.40 572.20-139L572.20-139L571.20-104L566.20-10.60L585.60-8L585.60 0L534.80 0L534.80-8ZM775.40-111.20L775.40-111.20Q793.20-111.20 803.60-103.20L803.60-103.20L803.60-103.20Q814.00-95.20 814.00-75.40L814.00-75.40L813.80-8L826.20-8L826.20-1.80L826.20-1.80Q822.80 0 818.00 1.10L818.00 1.10L818.00 1.10Q813.20 2.20 808.20 2.20L808.20 2.20L808.20 2.20Q801.60 2.20 799.50-0.60L799.50-0.60L799.50-0.60Q797.40-3.40 797.40-11L797.40-11L797.40-11Q786.20 2.40 764.00 2.40L764.00 2.40L764.00 2.40Q755.00 2.40 747.60-1.50L747.60-1.50L747.60-1.50Q740.20-5.40 736.00-12.30L736.00-12.30L736.00-12.30Q731.80-19.20 731.80-27.80L731.80-27.80L731.80-27.80Q731.80-41.20 742.20-49.50L742.20-49.50L742.20-49.50Q752.60-57.80 767.40-61.40L767.40-61.40L767.40-61.40Q782.20-65 796.40-65L796.40-65L796.40-73.40L796.40-73.40Q796.40-88.20 789.40-93.70L789.40-93.70L789.40-93.70Q782.40-99.20 769.00-99.20L769.00-99.20L769.00-99.20Q762.60-99.20 754.20-96.90L754.20-96.90L754.20-96.90Q745.80-94.60 739.60-91.20L739.60-91.20L736.20-99.60L736.20-99.60Q742.80-105 754.70-108.10L754.70-108.10L754.70-108.10Q766.60-111.20 775.40-111.20L775.40-111.20ZM796.40-55.60L796.40-55.60Q778.80-55.60 764.10-49.80L764.10-49.80L764.10-49.80Q749.40-44 749.40-30.80L749.40-30.80L749.40-30.80Q749.40-9.20 773.40-9.20L773.40-9.20L773.40-9.20Q780.00-9.20 786.40-12.10L786.40-12.10L786.40-12.10Q792.80-15 796.20-18.20L796.20-18.20L796.40-55.60ZM845.80-7.80L859.40-9.80L859.40-91.20L845.20-98L845.20-103.80L870.40-111L874.60-109L874.60-95.40L874.60-95.40Q882.00-101.60 894.40-106.50L894.40-106.50L894.40-106.50Q906.80-111.40 916.60-111.40L916.60-111.40L916.60-111.40Q933.40-111.40 940.40-100.60L940.40-100.60L940.40-100.60Q947.40-89.80 947.40-65.20L947.40-65.20L947.40-9.80L963.00-7.80L963.00 0L915.00 0L915.00-7.80L929.80-9.80L929.80-62.40L929.80-62.40Q929.80-75.20 927.90-82.90L927.90-82.90L927.90-82.90Q926.00-90.60 921.30-94.30L921.30-94.30L921.30-94.30Q916.60-98 907.80-98L907.80-98L907.80-98Q900.80-98 892.60-95.30L892.60-95.30L892.60-95.30Q884.40-92.60 877.00-87.40L877.00-87.40L877.00-9.80L891.80-7.80L891.80 0L845.80 0L845.80-7.80ZM1024-111.20L1024-111.20Q1041.80-111.20 1052.20-103.20L1052.20-103.20L1052.20-103.20Q1062.60-95.20 1062.60-75.40L1062.60-75.40L1062.40-8L1074.80-8L1074.80-1.80L1074.80-1.80Q1071.40 0 1066.60 1.10L1066.60 1.10L1066.60 1.10Q1061.80 2.20 1056.80 2.20L1056.80 2.20L1056.80 2.20Q1050.20 2.20 1048.10-0.60L1048.10-0.60L1048.10-0.60Q1046-3.40 1046-11L1046-11L1046-11Q1034.80 2.40 1012.60 2.40L1012.60 2.40L1012.60 2.40Q1003.60 2.40 996.20-1.50L996.20-1.50L996.20-1.50Q988.80-5.40 984.60-12.30L984.60-12.30L984.60-12.30Q980.40-19.20 980.40-27.80L980.40-27.80L980.40-27.80Q980.40-41.20 990.80-49.50L990.80-49.50L990.80-49.50Q1001.20-57.80 1016.00-61.40L1016.00-61.40L1016.00-61.40Q1030.80-65 1045-65L1045-65L1045-73.40L1045-73.40Q1045-88.20 1038-93.70L1038-93.70L1038-93.70Q1031-99.20 1017.60-99.20L1017.60-99.20L1017.60-99.20Q1011.20-99.20 1002.80-96.90L1002.80-96.90L1002.80-96.90Q994.40-94.60 988.20-91.20L988.20-91.20L984.80-99.60L984.80-99.60Q991.40-105 1003.30-108.10L1003.30-108.10L1003.30-108.10Q1015.20-111.20 1024-111.20L1024-111.20ZM1045-55.60L1045-55.60Q1027.40-55.60 1012.70-49.80L1012.70-49.80L1012.70-49.80Q998.00-44 998.00-30.80L998.00-30.80L998.00-30.80Q998.00-9.20 1022.00-9.20L1022.00-9.20L1022.00-9.20Q1028.60-9.20 1035-12.10L1035-12.10L1035-12.10Q1041.40-15 1044.80-18.20L1044.80-18.20L1045-55.60ZM1140.80-113.40L1140.80-113.40Q1157.20-113.40 1167.80-105.80L1167.80-105.80L1167.80-105.80Q1172.60-110.60 1184.20-110.60L1184.20-110.60L1196-110.60L1196-96.80L1175.80-96.80L1175.80-96.80Q1181-88.60 1181-77.20L1181-77.20L1181-77.20Q1181-64.80 1175-55.70L1175-55.70L1175-55.70Q1169-46.60 1159-41.90L1159-41.90L1159-41.90Q1149-37.20 1137.20-37.20L1137.20-37.20L1137.20-37.20Q1125.60-37.20 1116.80-40.80L1116.80-40.80L1116.80-40.80Q1115.60-38 1115.30-34.90L1115.30-34.90L1115.30-34.90Q1115-31.80 1115-27.40L1115-27.40L1115-27.40Q1115-21.60 1118-18.70L1118-18.70L1118-18.70Q1121-15.80 1128.20-15.40L1128.20-15.40L1128.20-15.40Q1131.40-15 1141.60-15L1141.60-15L1153-15L1153-15Q1170-15 1178.60-10.40L1178.60-10.40L1178.60-10.40Q1187.20-5.80 1189.60 0.50L1189.60 0.50L1189.60 0.50Q1192 6.80 1192 15L1192 15L1192 15Q1192 26.20 1185.70 34.50L1185.70 34.50L1185.70 34.50Q1179.40 42.80 1167.80 47.30L1167.80 47.30L1167.80 47.30Q1156.20 51.80 1140.60 51.80L1140.60 51.80L1140.60 51.80Q1120.20 51.80 1106.70 45.10L1106.70 45.10L1106.70 45.10Q1093.20 38.40 1093.20 23L1093.20 23L1093.20 23Q1093.20 14.60 1098.40 7.30L1098.40 7.30L1098.40 7.30Q1103.60 0 1109.80-3.80L1109.80-3.80L1109.80-3.80Q1104.80-5.80 1102.40-8.50L1102.40-8.50L1102.40-8.50Q1100-11.20 1099.60-13.80L1099.60-13.80L1099.60-13.80Q1099.20-16.40 1099.20-20.60L1099.20-20.60L1099.20-20.60Q1099.20-24.80 1102.50-31.80L1102.50-31.80L1102.50-31.80Q1105.80-38.80 1111.20-43.60L1111.20-43.60L1111.20-43.60Q1094.80-53.20 1094.80-73.60L1094.80-73.60L1094.80-73.60Q1094.80-86.60 1101.40-95.60L1101.40-95.60L1101.40-95.60Q1108-104.60 1118.50-109L1118.50-109L1118.50-109Q1129-113.40 1140.80-113.40L1140.80-113.40ZM1137.20-103.80L1137.20-103.80Q1126-103.80 1119.20-97.40L1119.20-97.40L1119.20-97.40Q1112.40-91 1112.40-77L1112.40-77L1112.40-77Q1112.40-63.60 1119.30-55.30L1119.30-55.30L1119.30-55.30Q1126.20-47 1140-47L1140-47L1140-47Q1152-47 1157.80-53.80L1157.80-53.80L1157.80-53.80Q1163.60-60.60 1163.60-74.60L1163.60-74.60L1163.60-74.60Q1163.60-89.60 1157-96.70L1157-96.70L1157-96.70Q1150.40-103.80 1137.20-103.80L1137.20-103.80ZM1117-2L1117-2Q1110.20 5.20 1110.20 17.20L1110.20 17.20L1110.20 17.20Q1110.20 30 1119.60 35.80L1119.60 35.80L1119.60 35.80Q1129 41.60 1143 41.60L1143 41.60L1143 41.60Q1159.20 41.60 1168.50 36L1168.50 36L1168.50 36Q1177.80 30.40 1177.80 19.40L1177.80 19.40L1177.80 19.40Q1177.80 12.60 1175.50 8.40L1175.50 8.40L1175.50 8.40Q1173.20 4.20 1166.80 1.90L1166.80 1.90L1166.80 1.90Q1160.40-0.40 1148.60-0.40L1148.60-0.40L1134.80-0.60L1134.80-0.60Q1123.40-0.60 1117-2L1117-2ZM1262.40-112.60L1262.40-112.60Q1280.20-113 1290.40-101.40L1290.40-101.40L1290.40-101.40Q1300.60-89.80 1300.60-69.40L1300.60-69.40L1300.60-69.40Q1300.60-62.40 1299.40-54L1299.40-54L1226-54L1226-54Q1226-33.60 1235.90-21.80L1235.90-21.80L1235.90-21.80Q1245.80-10 1264.20-10L1264.20-10L1264.20-10Q1272.20-10 1281-11.90L1281-11.90L1281-11.90Q1289.80-13.80 1294.20-16.40L1294.20-16.40L1297.60-8.60L1297.60-8.60Q1292-3.60 1280.50-0.60L1280.50-0.60L1280.50-0.60Q1269 2.40 1257.40 2.40L1257.40 2.40L1257.40 2.40Q1234.20 2.40 1221.30-12.90L1221.30-12.90L1221.30-12.90Q1208.40-28.20 1208.40-54.20L1208.40-54.20L1208.40-54.20Q1208.40-70.80 1215.30-83.90L1215.30-83.90L1215.30-83.90Q1222.20-97 1234.50-104.60L1234.50-104.60L1234.50-104.60Q1246.80-112.20 1262.40-112.60L1262.40-112.60ZM1257.80-102.80L1257.80-102.80Q1245.20-102.80 1236.50-93.30L1236.50-93.30L1236.50-93.30Q1227.80-83.80 1226.20-64.80L1226.20-64.80L1282-64.80L1282-64.80Q1282.20-66.80 1282.20-70.80L1282.20-70.80L1282.20-70.80Q1282.20-92.60 1271-99.40L1271-99.40L1271-99.40Q1265.80-102.80 1257.80-102.80L1257.80-102.80ZM1321.40-7.80L1337.60-9.80L1337.60-91.20L1323.40-98L1323.40-103.80L1348.60-111L1353-109L1353-94.40L1353-94.40Q1357-100.20 1367.70-105.70L1367.70-105.70L1367.70-105.70Q1378.40-111.20 1387.20-111.20L1387.20-111.20L1387.20-111.20Q1394.40-111.20 1396.80-110.60L1396.80-110.60L1396.80-92L1396.80-92Q1392.40-93.60 1389.10-94.30L1389.10-94.30L1389.10-94.30Q1385.80-95 1380.20-95L1380.20-95L1380.20-95Q1366.40-95 1355.20-87.60L1355.20-87.60L1355.20-10L1383.60-7.80L1383.60 0L1321.40 0L1321.40-7.80Z" fill="#444"></path></g></g><style>text {
  font-size: 64px;
  font-family: Arial Black;
  dominant-baseline: central;
  text-anchor: middle;
}</style></svg>