<svg width="446.22503662109375px" height="478.4px" xmlns="http://www.w3.org/2000/svg" viewBox="26.887481689453125 -164.2 446.22503662109375 478.4" style="background: rgba(0, 0, 0, 0);" preserveAspectRatio="xMidYMid"><defs><filter id="editing-liquid" width="150%" height="160%" x="-25%" y="-25%"><feFlood flood-color="#a0d5ff" result="flood-1"></feFlood><feFlood flood-color="rgba(100%,100%,100%,0.34)" result="flood-2"></feFlood><feFlood flood-color="#0067ff" result="flood-3"></feFlood><feTurbulence baseFrequency="0.01" type="fractalNoise" numOctaves="1" seed="1" result="bs-1"></feTurbulence><feGaussianBlur stdDeviation="10" in="SourceAlpha" result="bs-2"></feGaussianBlur><feDisplacementMap scale="420" in="bs-2" in2="bs-1" result="bs-3"></feDisplacementMap><feComposite operator="in" in="flood-1" in2="bs-3" result="bs-4"></feComposite><feTurbulence baseFrequency="0.02" type="fractalNoise" numOctaves="2" seed="2" result="ms-1"></feTurbulence><feGaussianBlur in="SourceAlpha" stdDeviation="0.1" result="ms-2"></feGaussianBlur><feDisplacementMap in="ms-2" in2="ms-1" scale="35" result="ms-3"></feDisplacementMap><feComposite in="flood-3" in2="ms-3" operator="in" result="ms-4"></feComposite><feTurbulence baseFrequency="0.05" type="fractalNoise" numOctaves="1" seed="3" result="ts-1"></feTurbulence><feGaussianBlur stdDeviation="3.5" in="SourceAlpha" result="ts-2"></feGaussianBlur><feDisplacementMap scale="220" in="ts-2" in2="ts-1" result="ts-3"></feDisplacementMap><feComposite operator="in" in="flood-2" in2="ts-3" result="ts-4"></feComposite><feMerge result="le-1"><feMergeNode in="bs-4"></feMergeNode><feMergeNode in="ms-4"></feMergeNode><feMergeNode in="ts-4"></feMergeNode></feMerge><feColorMatrix type="matrix" in="le-1" result="le-2" values="0 0 0 0 0, 0 0 0 0 0, 0 0 0 0 0, 0 0 0 1 0"></feColorMatrix><feGaussianBlur stdDeviation="2" in="le-2" result="le-3"></feGaussianBlur><feSpecularLighting surfaceScale="5" specularConstant=".75" specularExponent="30" lighting-color="#white" in="le-3" result="le-4"><fePointLight x="-50" y="-100" z="400"></fePointLight></feSpecularLighting><feComposite operator="in" in="le-4" in2="le-2" result="le-5"></feComposite><feComposite operator="arithmetic" k1="0" k2="1" k3="1" k4="0" in="le-1" in2="le-5" result="le-6"></feComposite></filter></defs><g filter="url(#editing-liquid)"><g transform="translate(87.6999740600586, 152.60001373291016)"><path d="M59.80 2.20L59.80 2.20Q46.20 2.20 33-0.50L33-0.50L33-0.50Q19.80-3.20 15-6L15-6L15-36.80L23.20-36.80L29-17.20L29-17.20Q34.40-11.60 43.20-9.30L43.20-9.30L43.20-9.30Q52-7 62-7L62-7L62-7Q74.80-7 84.10-13.70L84.10-13.70L84.10-13.70Q93.40-20.40 93.40-33.80L93.40-33.80L93.40-33.80Q93.40-41.80 88.50-48.10L88.50-48.10L88.50-48.10Q83.60-54.40 76.40-59.20L76.40-59.20L76.40-59.20Q69.20-64 57-70.60L57-70.60L57-70.60Q44-77.40 35.60-83.10L35.60-83.10L35.60-83.10Q27.20-88.80 21.60-96.80L21.60-96.80L21.60-96.80Q16-104.80 16-115.20L16-115.20L16-115.20Q16-128 23.30-136.50L23.30-136.50L23.30-136.50Q30.60-145 41.40-149L41.40-149L41.40-149Q52.20-153 63.20-153L63.20-153L63.20-153Q76.40-153 86.20-150.70L86.20-150.70L86.20-150.70Q96-148.40 101.20-145.40L101.20-145.40L101.20-118.60L93.20-118.60L86.20-137.60L86.20-137.60Q82.60-140.80 76.10-142.40L76.10-142.40L76.10-142.40Q69.60-144 62-144L62-144L62-144Q55.40-144 48.60-141.40L48.60-141.40L48.60-141.40Q41.80-138.80 37.10-133L37.10-133L37.10-133Q32.40-127.20 32.40-118.20L32.40-118.20L32.40-118.20Q32.40-107.80 41.10-100.30L41.10-100.30L41.10-100.30Q49.80-92.80 66.40-84.40L66.40-84.40L66.40-84.40Q80.80-76.80 89.40-71.20L89.40-71.20L89.40-71.20Q98-65.60 104.10-57.50L104.10-57.50L104.10-57.50Q110.20-49.40 110.20-38.80L110.20-38.80L110.20-38.80Q110.20-18.20 96-8L96-8L96-8Q81.80 2.20 59.80 2.20L59.80 2.20ZM127.80-8L145-10.60L154.60-140.20L135.40-141.80L135.40-151.60L179.40-151.60L215.60-43L220-28.60L224.40-43.20L258.80-151.60L299.40-151.60L299.40-141.80L280.80-140.20L292-10.60L309.60-8L309.60 0L258.20 0L258.20-8L275.40-10.60L267-104.60L266-138.40L261.60-121.40L220.40 1.40L214.20 1.40L175.80-107.80L175.80-107.80Q172.40-117.40 165.20-139L165.20-139L164.20-104L159.20-10.60L178.60-8L178.60 0L127.80 0L127.80-8Z" fill="#444"></path></g></g><style>text {
  font-size: 64px;
  font-family: Arial Black;
  dominant-baseline: central;
  text-anchor: middle;
}</style></svg>